<svg xmlns="http://www.w3.org/2000/svg" width="53.396" height="45.439" viewBox="0 0 53.396 45.439">
  <path id="Footer-logo" d="M4168.011-5527.638a.978.978,0,0,0-.489-.846l-25.722-14.85a.973.973,0,0,0-.976,0l-25.722,14.85a.977.977,0,0,0-.488.846v21.026a1.822,1.822,0,0,0,1.127,1.687c.025.011.052.021.077.029l.023.009.057.019a.119.119,0,0,0,.024.007.709.709,0,0,0,.073.021l.006,0c.025.007.052.012.078.018l.024,0a.568.568,0,0,0,.058.01.115.115,0,0,0,.025,0l.07.009.01,0,.079,0h.024a.568.568,0,0,0,.058,0h.025c.023,0,.047,0,.07,0h.01l.079-.006.023,0,.059-.006.024,0,.071-.013h.008l.078-.018a.155.155,0,0,1,.021-.006l.058-.016.022-.007.072-.023,0,0,.075-.028.02-.008.056-.025.021-.01.069-.034h0l.07-.04.02-.012.052-.033.019-.013c.022-.015.044-.03.066-.047h0l.064-.051.018-.015c.016-.014.032-.026.047-.041l.019-.016.06-.057,8.846-8.854,4.349,6.523-2.161,3.5a3.971,3.971,0,0,0-.091,4.069,3.971,3.971,0,0,0,3.509,2.062,4,4,0,0,0,2.127-.6,4.03,4.03,0,0,0,1.415-1.519,4.039,4.039,0,0,0,.479-2.02,4,4,0,0,0-.679-2.105l-2.279-3.419,8.065-13.053,8.066,13.053-2.28,3.419a4.01,4.01,0,0,0-.679,2.105,4.049,4.049,0,0,0,.479,2.02,4.037,4.037,0,0,0,1.415,1.519,4.009,4.009,0,0,0,2.128.6,3.971,3.971,0,0,0,3.509-2.062,3.969,3.969,0,0,0-.091-4.069l-2.16-3.5,4.349-6.524,8.845,8.847a1.911,1.911,0,0,0,.263.218,1.822,1.822,0,0,0,1.727.177,1.822,1.822,0,0,0,.783-.616c.026-.036.051-.073.073-.111a1.82,1.82,0,0,0,.271-.958h0Zm-26.7-13.722,24.745,14.286v20.146L4164-5508.99l-.866-.866a21.677,21.677,0,0,0-1.714-8.327,21.756,21.756,0,0,0-4.676-6.935,21.737,21.737,0,0,0-6.934-4.675,21.675,21.675,0,0,0-8.493-1.715,21.671,21.671,0,0,0-8.493,1.715,21.729,21.729,0,0,0-6.935,4.675,21.772,21.772,0,0,0-4.676,6.935,21.682,21.682,0,0,0-1.713,8.333l-1.845,1.847-1.083,1.085v-20.154Zm-7.411,38.171a2.032,2.032,0,0,1,.1,2.119,2.032,2.032,0,0,1-1.82,1.091,2.043,2.043,0,0,1-1.8-1.06,2.041,2.041,0,0,1,.047-2.091l1.69-2.735Zm18.3.06a2.04,2.04,0,0,1,.047,2.091,2.041,2.041,0,0,1-1.8,1.06,2.035,2.035,0,0,1-1.821-1.091,2.036,2.036,0,0,1,.1-2.119l1.784-2.676Zm3.6-13.551a.977.977,0,0,0-.716.43l-4.513,6.771-8.427-13.637a.978.978,0,0,0-.831-.463.976.976,0,0,0-.83.463l-8.427,13.637-4.514-6.771a.971.971,0,0,0-.716-.43.973.973,0,0,0-.787.281l-4.464,4.469a19.892,19.892,0,0,1,19.738-17.625,19.892,19.892,0,0,1,19.738,17.62l-4.463-4.464A.976.976,0,0,0,4155.8-5516.68Z" transform="translate(-4114.615 5543.464)" fill="#fff"/>
</svg>
