<svg xmlns="http://www.w3.org/2000/svg" width="19.98" height="20" viewBox="0 0 19.98 20">
  <g id="instagram-icon-white" transform="translate(-492.482 192.36)">
    <path id="Path_280" data-name="Path 280" d="M512.046-176.115a9.707,9.707,0,0,0,.395-3.11c.021-1.977.033-3.954,0-5.931a16.1,16.1,0,0,0-.225-2.762,5.019,5.019,0,0,0-3.5-4.03,9.687,9.687,0,0,0-3.088-.391c-1.984-.022-3.969-.033-5.952,0a15.913,15.913,0,0,0-2.762.227,5.019,5.019,0,0,0-4.015,3.49,9.7,9.7,0,0,0-.395,3.11c-.021,1.977-.033,3.954,0,5.931a18.119,18.119,0,0,0,.224,2.762,4.972,4.972,0,0,0,2.393,3.525,6.594,6.594,0,0,0,3.323.862c1.348.039,2.783.051,4.066.075v-.028c.962,0,1.85.028,2.782-.008a18.3,18.3,0,0,0,2.752-.228A5.007,5.007,0,0,0,512.046-176.115Zm-9.581-1.125a5.11,5.11,0,0,1-5.122-5.18,5.114,5.114,0,0,1,5.179-5.078,5.112,5.112,0,0,1,5.079,5.135A5.109,5.109,0,0,1,502.466-177.24ZM506.6-187.7a1.2,1.2,0,0,1,1.194-1.2A1.178,1.178,0,0,1,509-187.71a1.2,1.2,0,0,1-1.2,1.216A1.219,1.219,0,0,1,506.6-187.7Z" fill="#fff"/>
    <path id="Path_281" data-name="Path 281" d="M537.369-150.806a3.343,3.343,0,0,0-3.335,3.32,3.345,3.345,0,0,0,3.32,3.335,3.344,3.344,0,0,0,3.335-3.321A3.344,3.344,0,0,0,537.369-150.806Z" transform="translate(-34.889 -34.891)" fill="#fff"/>
  </g>
</svg>
