<svg xmlns="http://www.w3.org/2000/svg" width="98.709" height="84" viewBox="0 0 98.709 84">
  <g id="Logo-simbol-black" transform="translate(-860.907 -27)">
    <path id="Path_1" data-name="Path 1" d="M4213.324-5514.206a1.806,1.806,0,0,0-.9-1.563l-47.55-27.453a1.8,1.8,0,0,0-1.8,0l-47.549,27.453a1.8,1.8,0,0,0-.9,1.563v38.87a3.364,3.364,0,0,0,2.084,3.118c.047.02.095.038.142.056l.043.015c.035.012.07.024.105.034l.044.014c.045.014.089.026.134.038l.011,0,.145.032.045.008.105.018.047.008.129.016.018,0,.145.01.044,0,.107,0h.047c.043,0,.087,0,.13,0h.018c.049,0,.1-.006.146-.01l.042,0,.108-.014.044-.007c.045-.007.089-.013.132-.022l.014,0c.048-.009.1-.021.144-.032l.04-.01.107-.029.042-.013.132-.043.008,0c.047-.016.093-.034.139-.053l.038-.015.1-.045.039-.018c.043-.021.086-.042.128-.064l0,0c.044-.024.087-.048.131-.075a.364.364,0,0,0,.036-.021c.032-.019.064-.039.1-.059l.036-.024c.041-.028.082-.056.122-.086h0c.041-.03.081-.062.12-.094.012-.008.023-.018.034-.027l.085-.074c.011-.01.023-.02.034-.03.038-.035.075-.07.112-.106l16.352-16.368,8.039,12.059-3.994,6.463a7.339,7.339,0,0,0-.169,7.522,7.337,7.337,0,0,0,6.488,3.811,7.406,7.406,0,0,0,3.933-1.115,7.477,7.477,0,0,0,2.616-2.808,7.464,7.464,0,0,0,.885-3.734,7.4,7.4,0,0,0-1.253-3.891l-4.214-6.322,14.911-24.128,14.912,24.128-4.215,6.322a7.4,7.4,0,0,0-1.254,3.891,7.469,7.469,0,0,0,.885,3.734,7.474,7.474,0,0,0,2.616,2.808,7.407,7.407,0,0,0,3.933,1.115,7.339,7.339,0,0,0,6.488-3.811,7.339,7.339,0,0,0-.17-7.522l-3.994-6.463,8.04-12.06,16.352,16.353a3.444,3.444,0,0,0,.487.4,3.365,3.365,0,0,0,3.191.329,3.383,3.383,0,0,0,1.447-1.142c.047-.065.093-.134.136-.2a3.373,3.373,0,0,0,.5-1.773h0Zm-49.355-25.368,45.744,26.41v37.242l-3.812-3.812-1.6-1.6a40.055,40.055,0,0,0-3.169-15.393,40.182,40.182,0,0,0-8.642-12.819,40.19,40.19,0,0,0-12.82-8.643,40.078,40.078,0,0,0-15.7-3.17,40.074,40.074,0,0,0-15.7,3.17,40.169,40.169,0,0,0-12.819,8.643,40.179,40.179,0,0,0-8.644,12.819,40.087,40.087,0,0,0-3.169,15.405l-3.409,3.413-2,2v-37.258Zm-13.7,70.565a3.759,3.759,0,0,1,.189,3.918,3.761,3.761,0,0,1-3.365,2.016,3.771,3.771,0,0,1-3.334-1.958,3.771,3.771,0,0,1,.087-3.865l3.125-5.058Zm33.824.11a3.771,3.771,0,0,1,.087,3.865,3.77,3.77,0,0,1-3.334,1.958,3.763,3.763,0,0,1-3.366-2.016,3.761,3.761,0,0,1,.189-3.918l3.3-4.947Zm6.659-25.051a1.8,1.8,0,0,0-1.324.8l-8.345,12.517-15.577-25.208a1.807,1.807,0,0,0-1.536-.856,1.8,1.8,0,0,0-1.536.856l-15.578,25.208-8.345-12.517a1.8,1.8,0,0,0-1.325-.8,1.8,1.8,0,0,0-1.455.521l-8.252,8.261a36.775,36.775,0,0,1,36.49-32.583,36.775,36.775,0,0,1,36.489,32.574l-8.252-8.252A1.805,1.805,0,0,0,4190.751-5493.949Z" transform="translate(-3253.707 5570.464)"/>
  </g>
</svg>
