<svg xmlns="http://www.w3.org/2000/svg" width="200" height="200" viewBox="0 0 200 200">
  <g id="Logo-and-bg" transform="translate(-813)">
    <rect id="Rectangle_1" data-name="Rectangle 1" width="200" height="200" transform="translate(813)"/>
    <g id="Group_3" data-name="Group 3" transform="translate(-3055.45 5570.464)">
      <path id="Path_1" data-name="Path 1" d="M4218.8-5512.583a1.907,1.907,0,0,0-.952-1.65l-50.188-28.976a1.9,1.9,0,0,0-1.9,0l-50.187,28.976a1.9,1.9,0,0,0-.953,1.65v41.026a3.551,3.551,0,0,0,2.2,3.291c.049.021.1.04.15.058l.046.016.111.036.047.014c.047.015.094.028.142.04l.012,0c.051.013.1.024.152.034l.048.009.111.019.05.008.136.017.019,0c.052,0,.1.008.153.011l.047,0,.113,0h.049c.046,0,.092,0,.138,0h.019c.052,0,.1-.006.154-.011l.044,0,.115-.014.046-.007c.047-.007.094-.015.14-.024l.014,0c.05-.009.1-.021.152-.033l.042-.011.113-.031.044-.013c.047-.015.094-.03.14-.046l.008,0c.05-.017.1-.036.146-.056l.04-.016.108-.048.041-.019c.046-.022.091-.044.136-.068l0,0c.046-.025.092-.051.138-.079.013-.006.024-.014.038-.022.034-.02.068-.041.1-.063l.038-.025c.043-.029.086-.059.129-.091h0c.043-.032.085-.064.126-.1.013-.009.024-.02.036-.029l.091-.078.035-.032c.04-.037.079-.074.118-.112l17.259-17.275,8.485,12.728-4.215,6.822a7.743,7.743,0,0,0-.179,7.939,7.745,7.745,0,0,0,6.848,4.022,7.818,7.818,0,0,0,4.151-1.177,7.887,7.887,0,0,0,2.761-2.964,7.878,7.878,0,0,0,.935-3.941,7.818,7.818,0,0,0-1.323-4.107l-4.448-6.672,15.738-25.467,15.738,25.467-4.449,6.672a7.813,7.813,0,0,0-1.323,4.107,7.882,7.882,0,0,0,.934,3.941,7.9,7.9,0,0,0,2.761,2.964,7.82,7.82,0,0,0,4.152,1.177,7.745,7.745,0,0,0,6.847-4.022,7.746,7.746,0,0,0-.179-7.939l-4.215-6.822,8.486-12.729,17.259,17.26a3.643,3.643,0,0,0,.514.425,3.55,3.55,0,0,0,3.368.346,3.564,3.564,0,0,0,1.527-1.2c.05-.069.1-.142.144-.215a3.559,3.559,0,0,0,.528-1.872h0Zm-52.092-26.775,48.281,27.875v39.308l-4.023-4.024-1.69-1.69a42.279,42.279,0,0,0-3.345-16.247,42.418,42.418,0,0,0-9.122-13.531,42.416,42.416,0,0,0-13.531-9.122,42.3,42.3,0,0,0-16.57-3.347,42.3,42.3,0,0,0-16.571,3.347,42.4,42.4,0,0,0-13.53,9.122,42.413,42.413,0,0,0-9.123,13.531,42.293,42.293,0,0,0-3.345,16.26l-3.6,3.6-2.115,2.116v-39.325Zm-14.461,74.479a3.969,3.969,0,0,1,.2,4.136,3.97,3.97,0,0,1-3.551,2.127,3.981,3.981,0,0,1-3.52-2.067,3.98,3.98,0,0,1,.092-4.08l3.3-5.338Zm35.7.117a3.982,3.982,0,0,1,.092,4.08,3.98,3.98,0,0,1-3.519,2.067,3.971,3.971,0,0,1-3.552-2.127,3.97,3.97,0,0,1,.2-4.136l3.481-5.222Zm7.028-26.441a1.906,1.906,0,0,0-1.4.839l-8.808,13.211-16.441-26.606a1.906,1.906,0,0,0-1.621-.9,1.9,1.9,0,0,0-1.621.9l-16.442,26.606-8.808-13.211a1.9,1.9,0,0,0-1.4-.839,1.9,1.9,0,0,0-1.535.549l-8.71,8.719a38.815,38.815,0,0,1,38.514-34.39,38.815,38.815,0,0,1,38.513,34.38l-8.71-8.71A1.906,1.906,0,0,0,4194.975-5491.2Z" transform="translate(-198.257)" fill="#fff"/>
      <g id="Group_1" data-name="Group 1" transform="translate(3898.45 -5443.274)">
        <path id="Path_2" data-name="Path 2" d="M3907.557-4329.273h-3.235a.321.321,0,0,0-.321.32v9.361a.32.32,0,0,1-.32.32h-1.288a.32.32,0,0,1-.32-.32v-9.361a.321.321,0,0,0-.321-.32h-2.981a.32.32,0,0,1-.32-.32v-.866a.32.32,0,0,1,.32-.32h8.621a.321.321,0,0,1,.315.26l.166.866A.321.321,0,0,1,3907.557-4329.273Z" transform="translate(-3898.45 4331.051)" fill="#fff"/>
        <path id="Path_3" data-name="Path 3" d="M4033.079-4330.459a.32.32,0,0,1,.32-.32h3.115a5.458,5.458,0,0,1,3.216.872,2.971,2.971,0,0,1,1.236,2.6,3.152,3.152,0,0,1-.542,1.845,3.408,3.408,0,0,1-1.151,1.039.32.32,0,0,0-.121.438l2.419,4.238a.32.32,0,0,1-.279.479h-1.307a.32.32,0,0,1-.28-.166l-2.31-4.182a.319.319,0,0,0-.308-.164q-.3.027-.727.027H4035.3a.321.321,0,0,0-.321.32v3.844a.32.32,0,0,1-.32.32H4033.4a.32.32,0,0,1-.32-.32Zm3.4,1.271H4035.3a.321.321,0,0,0-.321.321v3.234a.321.321,0,0,0,.321.32h1.151a3.273,3.273,0,0,0,1.828-.457,1.617,1.617,0,0,0,.694-1.456,1.72,1.72,0,0,0-.643-1.506A3.161,3.161,0,0,0,4036.481-4329.189Z" transform="translate(-4021.926 4331.051)" fill="#fff"/>
        <path id="Path_4" data-name="Path 4" d="M4158.924-4319.592v-10.868a.32.32,0,0,1,.32-.32h1.255a.32.32,0,0,1,.32.32v10.868a.32.32,0,0,1-.32.32h-1.255A.32.32,0,0,1,4158.924-4319.592Z" transform="translate(-4137.346 4331.051)" fill="#fff"/>
        <path id="Path_5" data-name="Path 5" d="M4209.378-4330.576l4.209,10.81a.322.322,0,0,1-.253.434l-1.223.176a.321.321,0,0,1-.346-.206l-.966-2.595a.32.32,0,0,0-.3-.209h-4.075a.321.321,0,0,0-.3.207l-.943,2.48a.32.32,0,0,1-.3.207h-1.191a.321.321,0,0,1-.3-.435l4.155-10.867a.322.322,0,0,1,.3-.206h1.235A.319.319,0,0,1,4209.378-4330.576Zm-1.254,3.177-1.219,3.26a.321.321,0,0,0,.3.433h2.474a.321.321,0,0,0,.3-.436l-1.255-3.26A.32.32,0,0,0,4208.124-4327.4Z" transform="translate(-4178.108 4331.051)" fill="#fff"/>
        <path id="Path_6" data-name="Path 6" d="M4355.415-4319.271h-6.59a.32.32,0,0,1-.32-.32v-10.868a.32.32,0,0,1,.32-.32h1.255a.32.32,0,0,1,.32.32v9.378a.32.32,0,0,0,.321.32h4.54a.32.32,0,0,1,.315.263l.154.849A.32.32,0,0,1,4355.415-4319.271Z" transform="translate(-4311.221 4331.051)" fill="#fff"/>
        <path id="Path_7" data-name="Path 7" d="M4494.979-4330.576l4.208,10.81a.321.321,0,0,1-.253.434l-1.223.176a.322.322,0,0,1-.347-.206l-.966-2.595a.32.32,0,0,0-.3-.209h-4.075a.321.321,0,0,0-.3.207l-.943,2.48a.32.32,0,0,1-.3.207h-1.192a.321.321,0,0,1-.3-.435l4.155-10.867a.32.32,0,0,1,.3-.206h1.236A.319.319,0,0,1,4494.979-4330.576Zm-1.255,3.177-1.218,3.26a.321.321,0,0,0,.3.433h2.473a.321.321,0,0,0,.3-.436l-1.255-3.26A.32.32,0,0,0,4493.724-4327.4Z" transform="translate(-4440.049 4331.051)" fill="#fff"/>
        <path id="Path_8" data-name="Path 8" d="M4634.105-4319.592v-10.868a.32.32,0,0,1,.32-.32h1.306a.32.32,0,0,1,.263.138l4.974,7.132a.321.321,0,0,0,.583-.184v-6.766a.321.321,0,0,1,.321-.32h1.271a.32.32,0,0,1,.32.32v10.868a.32.32,0,0,1-.32.32h-1.323a.321.321,0,0,1-.263-.138l-4.973-7.177a.32.32,0,0,0-.584.182v6.812a.32.32,0,0,1-.32.32h-1.254A.32.32,0,0,1,4634.105-4319.592Z" transform="translate(-4573.163 4331.051)" fill="#fff"/>
        <path id="Path_9" data-name="Path 9" d="M4787.247-4319.271h-3.894a.32.32,0,0,1-.32-.32v-10.868a.32.32,0,0,1,.32-.32h3.927a4.82,4.82,0,0,1,3.893,1.557,6.173,6.173,0,0,1,1.32,4.129,7.183,7.183,0,0,1-.609,3.055,4.609,4.609,0,0,1-1.793,2.04A5.329,5.329,0,0,1,4787.247-4319.271Zm.1-9.883h-2.1a.32.32,0,0,0-.321.32v7.652a.321.321,0,0,0,.321.32h1.981a3,3,0,0,0,2.428-1.058,4.809,4.809,0,0,0,.889-3.156,4.967,4.967,0,0,0-.795-3A2.8,2.8,0,0,0,4787.349-4329.155Z" transform="translate(-4709.753 4331.051)" fill="#fff"/>
        <path id="Path_10" data-name="Path 10" d="M4969.348-4319.592v-10.868a.32.32,0,0,1,.32-.32h6.081a.32.32,0,0,1,.315.263l.154.848a.32.32,0,0,1-.315.378h-4.339a.321.321,0,0,0-.32.321v2.794a.321.321,0,0,0,.32.321h3.24a.32.32,0,0,1,.314.26l.164.848a.321.321,0,0,1-.315.381h-3.4a.321.321,0,0,0-.32.321v2.964a.32.32,0,0,0,.32.32h4.9a.321.321,0,0,1,.315.26l.164.849a.321.321,0,0,1-.315.381h-6.958A.32.32,0,0,1,4969.348-4319.592Z" transform="translate(-4880.633 4331.051)" fill="#fff"/>
        <path id="Path_11" data-name="Path 11" d="M5083.954-4330.459a.321.321,0,0,1,.32-.32h3.116a5.459,5.459,0,0,1,3.215.872,2.97,2.97,0,0,1,1.236,2.6,3.152,3.152,0,0,1-.542,1.845,3.4,3.4,0,0,1-1.151,1.039.32.32,0,0,0-.121.438l2.419,4.238a.32.32,0,0,1-.278.479h-1.307a.32.32,0,0,1-.28-.166l-2.31-4.182a.32.32,0,0,0-.309-.164q-.3.027-.727.027h-1.067a.321.321,0,0,0-.32.32v3.844a.32.32,0,0,1-.32.32h-1.255a.321.321,0,0,1-.32-.32Zm3.4,1.271h-1.186a.321.321,0,0,0-.32.321v3.234a.321.321,0,0,0,.32.32h1.153a3.273,3.273,0,0,0,1.827-.457,1.617,1.617,0,0,0,.694-1.456,1.72,1.72,0,0,0-.643-1.506A3.158,3.158,0,0,0,5087.356-4329.189Z" transform="translate(-4985.745 4331.051)" fill="#fff"/>
        <path id="Path_12" data-name="Path 12" d="M5209.8-4330.459a.321.321,0,0,1,.32-.32h3.116a5.461,5.461,0,0,1,3.216.872,2.972,2.972,0,0,1,1.235,2.6,3.152,3.152,0,0,1-.542,1.845,3.4,3.4,0,0,1-1.151,1.039.321.321,0,0,0-.121.438l2.419,4.238a.32.32,0,0,1-.278.479h-1.307a.32.32,0,0,1-.28-.166l-2.31-4.182a.32.32,0,0,0-.309-.164c-.2.018-.439.027-.727.027h-1.067a.321.321,0,0,0-.32.32v3.844a.32.32,0,0,1-.32.32h-1.255a.321.321,0,0,1-.32-.32Zm3.4,1.271h-1.187a.321.321,0,0,0-.32.321v3.234a.321.321,0,0,0,.32.32h1.152a3.275,3.275,0,0,0,1.828-.457,1.618,1.618,0,0,0,.693-1.456,1.721,1.721,0,0,0-.643-1.506A3.16,3.16,0,0,0,5213.2-4329.189Z" transform="translate(-5101.165 4331.051)" fill="#fff"/>
        <path id="Path_13" data-name="Path 13" d="M5330.98-4334.048a5.483,5.483,0,0,1,2.927.779,5.206,5.206,0,0,1,1.955,2.132,6.642,6.642,0,0,1,.686,3.046,6.67,6.67,0,0,1-.71,3.114,5.36,5.36,0,0,1-1.98,2.149,5.535,5.535,0,0,1-2.894.8,5.453,5.453,0,0,1-2.9-.77,5.167,5.167,0,0,1-1.946-2.124,6.648,6.648,0,0,1-.685-3.046,6.684,6.684,0,0,1,.7-3.1,5.352,5.352,0,0,1,1.971-2.158A5.581,5.581,0,0,1,5330.98-4334.048Zm-3.571,6.059a5.455,5.455,0,0,0,.44,2.243,3.621,3.621,0,0,0,1.244,1.548,3.159,3.159,0,0,0,1.853.559,3.26,3.26,0,0,0,1.836-.542,3.674,3.674,0,0,0,1.295-1.548,5.5,5.5,0,0,0,.474-2.361,5.4,5.4,0,0,0-.441-2.234,3.641,3.641,0,0,0-1.243-1.541,3.171,3.171,0,0,0-1.854-.558,3.206,3.206,0,0,0-1.828.558,3.763,3.763,0,0,0-1.3,1.574A5.384,5.384,0,0,0,5327.41-4327.99Z" transform="translate(-5207.216 4334.048)" fill="#fff"/>
        <path id="Path_14" data-name="Path 14" d="M5485.391-4330.459a.32.32,0,0,1,.32-.32h3.115a5.457,5.457,0,0,1,3.215.872,2.971,2.971,0,0,1,1.236,2.6,3.152,3.152,0,0,1-.542,1.845,3.408,3.408,0,0,1-1.151,1.039.32.32,0,0,0-.121.438l2.419,4.238a.32.32,0,0,1-.279.479H5492.3a.322.322,0,0,1-.281-.166l-2.309-4.182a.32.32,0,0,0-.308-.164q-.3.027-.727.027h-1.067a.321.321,0,0,0-.321.32v3.844a.32.32,0,0,1-.32.32h-1.254a.32.32,0,0,1-.32-.32Zm3.4,1.271h-1.185a.321.321,0,0,0-.321.321v3.234a.321.321,0,0,0,.321.32h1.152a3.275,3.275,0,0,0,1.828-.457,1.617,1.617,0,0,0,.694-1.456,1.72,1.72,0,0,0-.643-1.506A3.161,3.161,0,0,0,5488.792-4329.189Z" transform="translate(-5353.926 4331.051)" fill="#fff"/>
      </g>
      <g id="Group_2" data-name="Group 2" transform="translate(3898.45 -5423.301)">
        <path id="Path_15" data-name="Path 15" d="M3908.834-4068.808l-5.03-6.812a.67.67,0,0,0-1.209.4v13.911a.67.67,0,0,1-.67.67h-2.8a.67.67,0,0,1-.67-.67v-23.825a.67.67,0,0,1,.67-.67h1.577a.669.669,0,0,1,.543.279l7.9,10.969a.67.67,0,0,0,1.1-.017l7.368-10.934a.67.67,0,0,1,.556-.3h1.527a.67.67,0,0,1,.67.67v23.825a.67.67,0,0,1-.67.67h-2.878a.67.67,0,0,1-.67-.67v-13.2a.67.67,0,0,0-1.222-.38l-4.088,5.938a.671.671,0,0,1-.459.284l-.9.126A.671.671,0,0,1,3908.834-4068.808Z" transform="translate(-3898.45 4086.399)" fill="#fff"/>
        <path id="Path_16" data-name="Path 16" d="M4236.457-4085.38l9.224,23.693a.67.67,0,0,1-.529.906l-2.738.395a.67.67,0,0,1-.723-.43l-2.128-5.718a.671.671,0,0,0-.628-.437h-8.953a.671.671,0,0,0-.626.432l-2.077,5.464a.672.672,0,0,1-.626.432h-2.672a.67.67,0,0,1-.626-.909l9.11-23.825a.669.669,0,0,1,.625-.431h2.745A.67.67,0,0,1,4236.457-4085.38Zm-2.709,6.891-2.708,7.247a.67.67,0,0,0,.627.9h5.5a.67.67,0,0,0,.625-.911L4235-4078.5A.67.67,0,0,0,4233.748-4078.489Z" transform="translate(-4196.396 4086.399)" fill="#fff"/>
        <path id="Path_17" data-name="Path 17" d="M4569.037-4064.445l-7.572-10.153a.67.67,0,0,0-1.027-.057l-1.863,2a.672.672,0,0,0-.18.457v7.355a.67.67,0,0,1-.67.67h-2.8a.67.67,0,0,1-.67-.67v-23.825a.67.67,0,0,1,.67-.67h2.8a.67.67,0,0,1,.67.67v8.769a.671.671,0,0,0,1.154.464l9.635-10.017a.67.67,0,0,1,.9-.058l1.953,1.567a.671.671,0,0,1,.068.983l-7.886,8.351a.671.671,0,0,0-.048.862l9.368,12.5a.67.67,0,0,1-.536,1.072h-3.432A.669.669,0,0,1,4569.037-4064.445Z" transform="translate(-4499.921 4089.933)" fill="#fff"/>
        <path id="Path_18" data-name="Path 18" d="M4854-4061.312v-23.825a.671.671,0,0,1,.67-.67h13.352a.67.67,0,0,1,.66.55l.348,1.917a.67.67,0,0,1-.66.79h-9.555a.67.67,0,0,0-.67.67v6.172a.671.671,0,0,0,.67.67h7.141a.67.67,0,0,1,.658.543l.37,1.916a.67.67,0,0,1-.657.8h-7.511a.67.67,0,0,0-.67.67v6.542a.67.67,0,0,0,.67.67h10.768a.671.671,0,0,1,.658.543l.37,1.916a.67.67,0,0,1-.658.8h-15.282A.67.67,0,0,1,4854-4061.312Z" transform="translate(-4774.843 4086.399)" fill="#fff"/>
        <path id="Path_19" data-name="Path 19" d="M5118.017-4085.137a.671.671,0,0,1,.67-.67h6.843a11.937,11.937,0,0,1,7.031,1.906,6.5,6.5,0,0,1,2.7,5.681,6.885,6.885,0,0,1-1.185,4.034,7.448,7.448,0,0,1-2.543,2.288.667.667,0,0,0-.252.916l5.332,9.339a.671.671,0,0,1-.583,1h-2.927a.671.671,0,0,1-.587-.346l-5.068-9.178a.67.67,0,0,0-.649-.343q-.651.06-1.6.06h-2.365a.67.67,0,0,0-.67.67v8.467a.67.67,0,0,1-.67.67h-2.8a.67.67,0,0,1-.67-.67Zm7.439,2.809h-2.624a.671.671,0,0,0-.67.67v7.135a.67.67,0,0,0,.67.67h2.549a7.161,7.161,0,0,0,4-1,3.533,3.533,0,0,0,1.518-3.183,3.761,3.761,0,0,0-1.406-3.294A6.911,6.911,0,0,0,5125.456-4082.328Z" transform="translate(-5016.986 4086.399)" fill="#fff"/>
        <path id="Path_20" data-name="Path 20" d="M5384.845-4069.192l.581-2.091a.67.67,0,0,1,.913-.435,20.581,20.581,0,0,0,2.3.821,11.429,11.429,0,0,0,3.257.518,6.938,6.938,0,0,0,3.738-.832,2.641,2.641,0,0,0,1.3-2.35,2.6,2.6,0,0,0-.7-1.758,7.112,7.112,0,0,0-1.795-1.425q-1.092-.628-3.165-1.665a20.921,20.921,0,0,1-5.236-3.534,5.951,5.951,0,0,1-1.758-4.386,5.887,5.887,0,0,1,1.018-3.386,6.874,6.874,0,0,1,2.924-2.368,10.757,10.757,0,0,1,4.5-.87,13.138,13.138,0,0,1,3.534.5,19.026,19.026,0,0,1,2.755.993.671.671,0,0,1,.341.875l-.884,2.07a.67.67,0,0,1-.888.349,18.364,18.364,0,0,0-1.991-.753,9.259,9.259,0,0,0-2.721-.37,6,6,0,0,0-3.146.74,2.4,2.4,0,0,0-1.221,2.183,2.816,2.816,0,0,0,.648,1.832,6.092,6.092,0,0,0,1.7,1.406q1.054.611,3.313,1.758a35.983,35.983,0,0,1,3.793,2.2,8.527,8.527,0,0,1,2.332,2.369,5.786,5.786,0,0,1,.907,3.238,6.107,6.107,0,0,1-1.073,3.553,6.966,6.966,0,0,1-3.165,2.424,13.042,13.042,0,0,1-5.015.87,15.153,15.153,0,0,1-3.922-.647,13.438,13.438,0,0,1-2.847-1.067A.667.667,0,0,1,5384.845-4069.192Z" transform="translate(-5261.181 4092.954)" fill="#fff"/>
      </g>
    </g>
  </g>
</svg>
