<svg id="twitter-icon" xmlns="http://www.w3.org/2000/svg" width="18.942" height="15.394" viewBox="0 0 18.942 15.394">
  <path id="Path_193" data-name="Path 193" d="M1667.528,6848.6a10.672,10.672,0,0,0,7.975,4.044,3.914,3.914,0,0,1,6.659-3.536,8.677,8.677,0,0,0,2.45-.92,3.719,3.719,0,0,1-1.686,2.085,7.281,7.281,0,0,0,2.195-.531,7.611,7.611,0,0,1-1.96,1.973c.752,6.633-7.189,15.341-16.982,9.84a7.653,7.653,0,0,0,5.723-1.652,4.345,4.345,0,0,1-4-2.555,2.389,2.389,0,0,0,2.139-.184,4.235,4.235,0,0,1-3.322-3.933,2.4,2.4,0,0,0,1.953.543A3.88,3.88,0,0,1,1667.528,6848.6Z" transform="translate(-1666.179 -6847.904)"/>
</svg>
