<svg id="youtube-icon" xmlns="http://www.w3.org/2000/svg" width="25.829" height="18" viewBox="0 0 25.829 18">
  <g id="Group_246" data-name="Group 246">
    <path id="Path_191" data-name="Path 191" d="M1741.709,6862.181a4.029,4.029,0,0,1-3.6,3.394,123.046,123.046,0,0,1-17.98,0,4.026,4.026,0,0,1-3.6-3.394,42.886,42.886,0,0,1,0-10.555,4.026,4.026,0,0,1,3.6-3.394,123.32,123.32,0,0,1,17.98,0,4.025,4.025,0,0,1,3.6,3.394A42.976,42.976,0,0,1,1741.709,6862.181Z" transform="translate(-1716.204 -6847.904)"/>
  </g>
  <path id="Path_192" data-name="Path 192" d="M1729.045,6854.515v6.3l7.176-3.15Z" transform="translate(-1718.703 -6849.19)" fill="#fff"/>
</svg>
